<svg xmlns="http://www.w3.org/2000/svg" baseProfile="full" version="1.1" style="fill: none; background:#000" width="420px" height="300px"><path style="stroke-width: 15px; stroke-linecap: round; stroke-linejoin: round; stroke: rgb(68, 68, 68); fill: none;" d=""/><path style="stroke-width: 15px; stroke-linecap: round; stroke-linejoin: round; stroke: rgb(119, 119, 119); fill: none;" d=""/><path style="stroke-width: 81px; stroke-linecap: square; stroke-linejoin: round; stroke: rgb(255, 255, 255); fill: none;" d="M90,135 Q150,75 210,75 Q210,75 210,75 Q270,75 330,135 M210,195 A60,60 0 0,1 150,135 A60,60 0 0,1 210,75 A60,60 0 0,1 270,135 A60,60 0 0,1 210,195 M255,180 L255,180 L285,210 M210,195 L210,195 L210,240 M165,180 L165,180 L135,210 "/></svg>
